<svg version="1.2" stroke-width="12" xmlns="http://www.w3.org/2000/svg" viewBox="0 0 800 800" width="800" height="800">
	<style>
		.s0 { opacity: .97;fill: #0000; } 
		.s1 { opacity: .94;fill: #fbfbfb } 
		.s2 { opacity: 1;fill: #ffffff; stroke-width: 7; stroke: #ffffff} 
	</style>
	<g id="WebByPeopleLogo">
		<path storke-width="12" stroke-opcaity="1" stroke-color="white" id="Path 2" fill-rule="evenodd" class="s2" d="m327.55 2.8l24.09-2.41h62.62l24.08 2.41 9.63 2.41 14.46 2.41 9.63 2.4 12.04 2.41 28.9 9.64 48.17 19.26 45.76 28.91 67.44 62.62 60.21 96.33 21.68 72.26 2.41 12.04 4.81 28.9 2.41 19.27v69.85l-2.41 21.67-2.41 16.86-2.4 9.63-2.41 12.05-4.82 19.26-38.53 96.34-74.67 93.93-86.7 60.21-84.3 28.91-9.63 2.4-14.45 2.41-16.86 2.41h-2.41l-19.27 2.41h-57.8l-105.97-26.49-98.75-60.21-48.17-48.17-36.13-50.58-31.31-62.62-9.63-36.13-2.41-7.22-4.82-19.27-2.4-12.04-2.41-9.64-2.41-16.86-2.41-24.08v-62.62l2.41-21.68 2.41-16.86 4.81-24.08 2.41-7.23 2.41-12.04 33.72-86.7 43.35-62.62 74.66-67.44 62.62-33.72 7.23-2.41 4.82-2.41 43.35-14.45 19.27-4.81 14.45-2.41zm4.81 24.08l-36.12 31.31-33.72 48.17-26.49 65.03 86.7 19.27 52.99 2.41v-178.23h-12.05zm93.93 163.77l89.12-14.45 14.45-4.81v-9.64l-55.4-98.74-40.94-36.13-43.35-12.04v178.22h28.9zm21.68-171l45.76 45.76 55.39 101.16 77.07-38.54 9.64-7.22-2.41-9.64-77.07-55.39-96.34-36.13zm-226.4 31.31l-48.17 28.9-43.35 38.54 91.52 45.76 31.31-72.25 28.9-40.95 31.31-26.49-12.04-2.41zm-207.13 303.47v36.12h168.6v-43.35l2.4-9.63 2.41-33.72 2.41-9.63 26.49-115.61-57.8-24.09-40.94-26.49-62.62 86.71-24.09 57.8-14.45 72.25zm736.99 26.5l-7.22-69.85-14.45-50.58-36.13-74.66-43.35-55.39-96.34 45.76-2.41 9.63 26.49 101.16 7.23 103.56h166.18zm-553.95 9.63h24.09v12.05l-24.09 2.4v7.23l9.64 101.16 31.31 108.38 89.11-16.86 7.23-2.41h72.25l122.83 16.86 28.9-103.57 9.64-96.33v-14.46l-52.99-2.4 2.41-12.05h50.58v-52.98l-2.41-12.04-12.04-84.3-16.86-55.4-110.79 21.68-105.97-2.41-91.53-19.27-26.49 108.39-4.82 79.47zm-16.85 16.86l-166.19-2.4 7.23 74.66 14.45 50.58 33.72 72.25 57.8 72.25 93.93-45.76-28.9-108.38-9.64-105.97zm394.99 103.56l-33.72 115.61 48.17 19.27 43.36 28.9 14.45-7.23 36.12-45.76 33.72-60.21 21.68-62.62 12.04-67.44v-26.49h-166.18zm-317.92 120.42l-12.04 9.64 57.8 101.15 31.31 28.91 40.94 12.04v-166.19h-38.53zm132.46 151.74l38.54-9.64 33.72-28.9 28.9-40.94 31.31-65.03-57.8-16.86-74.67-4.82zm-211.94-120.42l-36.13 26.49 52.99 40.95 50.58 26.49 69.84 19.27-57.8-72.26-28.9-62.62zm276.97 113.2l96.34-33.72 72.25-52.98-26.49-21.68-50.58-24.08h-12.04l-36.13 77.07-48.17 55.39zm-98.74-510.59l9.63-24.09 26.49-4.81 14.45 12.04 2.41 12.04 24.09-2.41 9.63 7.23 4.82 33.72 24.08-2.41 9.64 9.63 4.81 156.55-7.22 33.72-21.68 40.94-2.41 36.13-12.04-2.41v-33.72l28.9-72.25v-146.92l-4.81-7.22h-14.46l-4.81 9.63v77.07l-9.64 2.41-4.81-122.83-14.45-7.23-9.64 9.64v108.38l-14.45-2.41v-127.65l-4.82-7.22-16.85 2.4-2.41 134.88-12.05 2.41-2.4-105.98-7.23-7.22-16.86 7.22v142.1l45.76 24.09 12.04 19.27 2.41 21.67-12.04-2.41-7.22-21.67-16.86-16.86-36.13-9.64-36.13-52.98-21.67 2.41 40.94 96.34 38.54 43.35 2.4 40.94h-12.04l-4.82-38.53-38.53-43.36-40.94-101.15 9.63-14.45 24.08-2.41 21.68 14.45 14.45 21.68v-125.24l21.68-16.86z"/>
	</g>
</svg>